<!-- icon666.com - MILLIONS OF FREE VECTOR ICONS --><svg xmlns="http://www.w3.org/2000/svg" id="Line_Gradient" data-name="Line Gradient" viewBox="0 0 64 64"><defs><style>.cls-1{fill:#ff377e;}</style></defs><path class="cls-1" d="M14,8.29492c-7.53965.23942-7.53789,11.17186.00013,11.41016C21.53965,19.46566,21.53789,8.53322,14,8.29492Zm0,9.41016a3.70531,3.70531,0,0,1,.00011-7.41016A3.70531,3.70531,0,0,1,14,17.70508Zm18,8.58984c-7.53965.23942-7.53789,11.17186.00013,11.41016C39.53965,37.46566,39.53789,26.53322,32,26.29492Zm0,9.41016a3.70531,3.70531,0,0,1,.00011-7.41016A3.70531,3.70531,0,0,1,32,35.70508ZM59,4c-16.0361.00557-37.9654-.004-54,0A1,1,0,0,0,4,5c.01242,8.97687,0,54,0,54a1,1,0,0,0,1,1c8.97687-.01242,54,0,54,0a1,1,0,0,0,1-1c-.01242-8.97687,0-54,0-54A1,1,0,0,0,59,4ZM6,24H22V40H6Zm18,0H40V40H24Zm18,0H58V40H42Zm16-2H42V6H58ZM40,22H24V6H40ZM6,6H22V22H6ZM6,42H22V58H6Zm18,0H40V58H24ZM58,58H42V42H58ZM50,19.70508c7.53965-.23942,7.53789-11.17186-.00013-11.41016C42.46035,8.53434,42.46211,19.46678,50,19.70508Zm0-9.41016a3.70531,3.70531,0,0,1-.00011,7.41016A3.70531,3.70531,0,0,1,50,10.29492Zm0,45.41016c7.53965-.23942,7.53789-11.17186-.00013-11.41016C42.46035,44.53434,42.46211,55.46678,50,55.70508Zm0-9.41016a3.70531,3.70531,0,0,1-.00011,7.41016A3.70531,3.70531,0,0,1,50,46.29492Zm-18-2c-7.53965.23942-7.53789,11.17186.00013,11.41016C39.53965,55.46566,39.53789,44.53322,32,44.29492Zm0,9.41016a3.70531,3.70531,0,0,1,.00011-7.41016A3.70531,3.70531,0,0,1,32,53.70508ZM28.00146,16.58447,30.58594,14l-2.58448-2.58447a.9999.9999,0,1,1,1.41407-1.41407L32,12.58594l2.58447-2.58448a.9999.9999,0,1,1,1.41407,1.41407L33.41406,14l2.58448,2.58447a.9999.9999,0,1,1-1.41407,1.41407L32,15.41406l-2.58447,2.58448a.9999.9999,0,1,1-1.41407-1.41407ZM53.99854,29.41553,51.41406,32l2.58448,2.58447a.9999.9999,0,0,1-1.41407,1.41407L50,33.41406l-2.58447,2.58448a.9999.9999,0,0,1-1.41407-1.41407L48.58594,32l-2.58448-2.58447a.9999.9999,0,1,1,1.41407-1.41407L50,30.58594l2.58447-2.58448a.9999.9999,0,1,1,1.41407,1.41407Zm-36,0L15.41406,32l2.58448,2.58447a.9999.9999,0,1,1-1.41407,1.41407L14,33.41406l-2.58447,2.58448a.9999.9999,0,1,1-1.41407-1.41407L12.58594,32l-2.58448-2.58447a.9999.9999,0,1,1,1.41407-1.41407L14,30.58594l2.58447-2.58448a.9999.9999,0,1,1,1.41407,1.41407Zm0,18L15.41406,50l2.58448,2.58447a.9999.9999,0,1,1-1.41407,1.41407L14,51.41406l-2.58447,2.58448a.9999.9999,0,1,1-1.41407-1.41407L12.58594,50l-2.58448-2.58447a.9999.9999,0,1,1,1.41407-1.41407L14,48.58594l2.58447-2.58448a.9999.9999,0,1,1,1.41407,1.41407Z" fill="#000000" style="fill: rgb(255, 73, 108);"></path></svg>